<svg width="1440" height="238" viewBox="0 0 1440 238" fill="none" xmlns="http://www.w3.org/2000/svg">
<rect x="0.5" y="38.5" width="1439" height="199" fill="#FAFAFA" stroke="#D8D8D8"/>
<path d="M345.881 131.236H343.213V122.591H345.881V131.236V131.236ZM344.545 121.412C343.692 121.412 343 120.701 343 119.842C343 118.984 343.692 118.287 344.545 118.287C345.398 118.287 346.09 118.984 346.09 119.842C346.09 120.701 345.398 121.412 344.545 121.412ZM355.866 131.236H353.204V127.028C353.204 126.025 353.184 124.739 351.817 124.739C350.43 124.739 350.217 125.828 350.217 126.956V131.236H347.552V122.591H350.111V123.77H350.148C350.504 123.091 351.374 122.374 352.673 122.374C355.372 122.374 355.869 124.163 355.869 126.487V131.236H355.866Z" fill="#696969"/>
<path d="M396.04 121.494C396.05 121.635 396.05 121.776 396.05 121.916C396.05 126.209 392.733 131.156 386.67 131.156C384.802 131.156 383.067 130.623 381.607 129.698C381.873 129.728 382.128 129.738 382.403 129.738C383.945 129.738 385.363 129.226 386.496 128.351C385.047 128.321 383.832 127.386 383.414 126.099C383.618 126.129 383.822 126.149 384.036 126.149C384.332 126.149 384.628 126.109 384.904 126.039C383.393 125.737 382.26 124.43 382.26 122.851V122.811C382.699 123.053 383.21 123.203 383.751 123.223C382.863 122.64 382.281 121.645 382.281 120.519C382.281 119.916 382.444 119.363 382.73 118.88C384.353 120.851 386.792 122.138 389.528 122.278C389.477 122.037 389.446 121.786 389.446 121.534C389.446 119.745 390.916 118.287 392.743 118.287C393.692 118.287 394.55 118.679 395.152 119.312C395.897 119.172 396.611 118.9 397.244 118.528C396.999 119.282 396.479 119.916 395.795 120.318C396.458 120.248 397.101 120.067 397.693 119.815C397.244 120.459 396.683 121.032 396.04 121.494V121.494Z" fill="#696969"/>
<path d="M425.862 133.086V125.891H423.431V123.032H425.862V120.78C425.862 118.332 427.37 117 429.572 117C430.627 117 431.533 117.079 431.796 117.113V119.671H430.269C429.071 119.671 428.84 120.236 428.84 121.062V123.032H431.543L431.172 125.891H428.84V133.086" fill="#696969"/>
<path d="M464.029 118.287C460.763 118.287 457.534 120.315 457.534 123.598C457.534 125.685 458.795 126.871 459.559 126.871C459.874 126.871 460.056 126.053 460.056 125.821C460.056 125.546 459.301 124.959 459.301 123.811C459.301 121.427 461.25 119.737 463.771 119.737C465.94 119.737 467.544 120.884 467.544 122.993C467.544 124.567 466.866 127.521 464.669 127.521C463.876 127.521 463.198 126.987 463.198 126.222C463.198 125.101 464.039 124.016 464.039 122.859C464.039 120.896 461.049 121.252 461.049 123.624C461.049 124.122 461.116 124.674 461.355 125.128C460.916 126.889 460.018 129.513 460.018 131.328C460.018 131.888 460.104 132.44 460.161 133C460.269 133.113 460.215 133.101 460.381 133.045C461.985 130.999 461.928 130.598 462.654 127.921C463.046 128.615 464.058 128.988 464.86 128.988C468.241 128.988 469.76 125.919 469.76 123.153C469.76 120.208 467.028 118.287 464.029 118.287Z" fill="#696969"/>
<g clip-path="url(#clip0_15_71)">
<path d="M1441.65 184.483C1461.59 170.427 1466.67 143.328 1453.01 123.956C1439.34 104.584 1412.11 100.274 1392.18 114.33C1372.25 128.386 1367.17 155.485 1380.83 174.857C1394.49 194.23 1421.72 198.539 1441.65 184.483Z" fill="#FAD34F"/>
<path d="M1413.17 129.788C1414.09 131.098 1412.64 131.219 1411.29 132.169C1409.94 133.119 1409.21 134.541 1408.29 133.229C1407.36 131.917 1407.71 130.087 1409.06 129.137C1410.4 128.185 1412.24 128.476 1413.17 129.788Z" fill="white"/>
<path d="M1422.49 123.213C1423.41 124.523 1421.96 124.644 1420.61 125.594C1419.27 126.544 1418.54 127.966 1417.61 126.654C1416.69 125.342 1417.03 123.513 1418.38 122.562C1419.73 121.61 1421.57 121.901 1422.49 123.213Z" fill="white"/>
<path d="M1424.47 130.934C1426.27 133.492 1425.6 137.072 1422.97 138.928C1420.34 140.784 1416.74 140.215 1414.93 137.657C1413.13 135.098 1417.19 136.329 1419.83 134.473C1422.46 132.617 1422.66 128.376 1424.47 130.934Z" fill="white"/>
</g>
<path d="M1312.46 95.7675C1312.46 117.435 1294.9 135 1273.23 135V135C1251.56 135 1234 117.435 1234 95.7675V38H1312.46V95.7675Z" fill="#46EBB0"/>
<path d="M1272.01 107.05C1272.01 104.241 1274.29 107.05 1277.1 107.05C1279.91 107.05 1282.19 104.241 1282.19 107.05C1282.19 109.859 1279.91 112.14 1277.1 112.14C1274.29 112.14 1272.01 109.862 1272.01 107.05Z" fill="white"/>
<path d="M1255.99 107.05C1255.99 104.241 1258.26 107.05 1261.08 107.05C1263.89 107.05 1266.17 104.241 1266.17 107.05C1266.17 109.859 1263.89 112.14 1261.08 112.14C1258.26 112.14 1255.99 109.862 1255.99 107.05Z" fill="white"/>
<path d="M1261.09 96.2664C1261.09 91.0982 1265.28 86.9108 1270.44 86.9108C1275.61 86.9108 1279.8 91.1008 1279.8 96.2664C1279.8 101.432 1275.61 95.9055 1270.44 95.9055C1265.28 95.9055 1261.09 101.432 1261.09 96.2664Z" fill="white"/>
<g clip-path="url(#clip1_15_71)">
<path d="M233.884 225.942C190.22 265.761 123.448 263.637 84.745 221.198C46.0418 178.758 50.0633 112.073 93.7274 72.2535C137.391 32.4338 204.163 34.5579 242.867 76.9977C281.57 119.438 277.548 186.122 233.884 225.942Z" fill="#F472B7"/>
<path d="M119.344 129.984C121.961 132.853 123.006 129.479 125.957 126.787C128.909 124.095 132.654 123.11 130.033 120.236C127.412 117.362 122.903 117.223 119.951 119.915C116.995 122.602 116.723 127.11 119.344 129.984Z" fill="white"/>
<path d="M98.9197 148.61C101.536 151.479 102.581 148.105 105.533 145.413C108.484 142.721 112.23 141.736 109.609 138.862C106.988 135.988 102.479 135.85 99.527 138.541C96.5707 141.228 96.2988 145.736 98.9197 148.61Z" fill="white"/>
<path d="M116.157 157.316C121.268 162.92 130.087 163.201 135.853 157.942C141.62 152.684 142.151 143.876 137.04 138.272C131.929 132.667 132.72 142.925 126.953 148.183C121.187 153.442 111.046 151.711 116.157 157.316Z" fill="white"/>
</g>
<defs>
<clipPath id="clip0_15_71">
<rect width="88.3204" height="85.8441" fill="white" transform="translate(1356 139.901) rotate(-35.1926)"/>
</clipPath>
<clipPath id="clip1_15_71">
<rect width="214" height="208" fill="white" transform="matrix(-0.738886 0.673831 0.673831 0.738886 173.122 0)"/>
</clipPath>
</defs>
</svg>
